<mxfile host="app.diagrams.net" modified="2023-09-22T10:12:36.055Z" agent="Mozilla/5.0 (Windows NT 10.0; Win64; x64) AppleWebKit/537.36 (KHTML, like Gecko) Chrome/116.0.0.0 Safari/537.36" etag="vlalMCmgQX4KoG74J3Qv" version="21.8.0" type="device">
  <diagram name="Trang-1" id="KVv8L9dOaF6E6pBFvIAu">
    <mxGraphModel dx="3563" dy="971" grid="1" gridSize="10" guides="1" tooltips="1" connect="1" arrows="1" fold="1" page="1" pageScale="1" pageWidth="827" pageHeight="1169" math="0" shadow="0">
      <root>
        <mxCell id="0" />
        <mxCell id="1" parent="0" />
        <mxCell id="sdsZ9pWvR6tTJKx77jnk-1" value="&lt;font&gt;Brand&lt;/font&gt;" style="rounded=0;whiteSpace=wrap;html=1;fillColor=#fff2cc;strokeColor=#d6b656;" vertex="1" parent="1">
          <mxGeometry x="-1250" y="230" width="120" height="60" as="geometry" />
        </mxCell>
        <mxCell id="sdsZ9pWvR6tTJKx77jnk-2" value="&lt;font&gt;Customer&lt;/font&gt;" style="rounded=0;whiteSpace=wrap;html=1;fillColor=#f8cecc;strokeColor=#b85450;" vertex="1" parent="1">
          <mxGeometry x="-480" y="320" width="120" height="60" as="geometry" />
        </mxCell>
        <mxCell id="sdsZ9pWvR6tTJKx77jnk-3" value="&lt;font&gt;Order&lt;/font&gt;" style="rounded=0;whiteSpace=wrap;html=1;strokeColor=#000000;fontColor=#000000;" vertex="1" parent="1">
          <mxGeometry x="-510" y="660" width="120" height="60" as="geometry" />
        </mxCell>
        <mxCell id="sdsZ9pWvR6tTJKx77jnk-4" value="1" style="endArrow=none;html=1;rounded=0;entryX=0.5;entryY=0;entryDx=0;entryDy=0;exitX=0.5;exitY=1;exitDx=0;exitDy=0;" edge="1" parent="1" source="sdsZ9pWvR6tTJKx77jnk-83" target="sdsZ9pWvR6tTJKx77jnk-2">
          <mxGeometry x="0.875" y="-10" width="50" height="50" relative="1" as="geometry">
            <mxPoint x="-420" y="200" as="sourcePoint" />
            <mxPoint x="-475" y="330" as="targetPoint" />
            <mxPoint as="offset" />
          </mxGeometry>
        </mxCell>
        <mxCell id="sdsZ9pWvR6tTJKx77jnk-5" value="having" style="rhombus;whiteSpace=wrap;html=1;fillColor=#dae8fc;strokeColor=#6c8ebf;" vertex="1" parent="1">
          <mxGeometry x="-1070" y="240" width="80" height="40" as="geometry" />
        </mxCell>
        <mxCell id="sdsZ9pWvR6tTJKx77jnk-6" value="M" style="text;html=1;strokeColor=none;fillColor=none;align=center;verticalAlign=middle;whiteSpace=wrap;rounded=0;" vertex="1" parent="1">
          <mxGeometry x="-920" y="350" width="30" height="20" as="geometry" />
        </mxCell>
        <mxCell id="sdsZ9pWvR6tTJKx77jnk-7" value="including" style="rhombus;whiteSpace=wrap;html=1;fillColor=#dae8fc;strokeColor=#6c8ebf;" vertex="1" parent="1">
          <mxGeometry x="-920" y="120" width="80" height="40" as="geometry" />
        </mxCell>
        <mxCell id="sdsZ9pWvR6tTJKx77jnk-8" value="M" style="endArrow=none;html=1;rounded=0;entryX=0.5;entryY=1;entryDx=0;entryDy=0;exitX=0.5;exitY=0;exitDx=0;exitDy=0;" edge="1" parent="1" source="sdsZ9pWvR6tTJKx77jnk-20" target="sdsZ9pWvR6tTJKx77jnk-7">
          <mxGeometry x="-0.875" y="-10" width="50" height="50" relative="1" as="geometry">
            <mxPoint x="-720" y="320" as="sourcePoint" />
            <mxPoint x="-670" y="270" as="targetPoint" />
            <mxPoint as="offset" />
          </mxGeometry>
        </mxCell>
        <mxCell id="sdsZ9pWvR6tTJKx77jnk-9" value="booking" style="rhombus;whiteSpace=wrap;html=1;fillColor=#dae8fc;strokeColor=#6c8ebf;" vertex="1" parent="1">
          <mxGeometry x="-490" y="490" width="80" height="40" as="geometry" />
        </mxCell>
        <mxCell id="sdsZ9pWvR6tTJKx77jnk-10" value="Employee_Role" style="rounded=0;whiteSpace=wrap;html=1;fillColor=#f8cecc;strokeColor=#b85450;" vertex="1" parent="1">
          <mxGeometry x="420" y="310" width="120" height="60" as="geometry" />
        </mxCell>
        <mxCell id="sdsZ9pWvR6tTJKx77jnk-11" value="Voucher" style="rounded=0;whiteSpace=wrap;html=1;" vertex="1" parent="1">
          <mxGeometry x="-720" y="320" width="120" height="60" as="geometry" />
        </mxCell>
        <mxCell id="sdsZ9pWvR6tTJKx77jnk-12" value="Web_Content" style="rounded=0;whiteSpace=wrap;html=1;fillColor=#f8cecc;strokeColor=#b85450;" vertex="1" parent="1">
          <mxGeometry x="230" y="700" width="120" height="60" as="geometry" />
        </mxCell>
        <mxCell id="sdsZ9pWvR6tTJKx77jnk-13" value="" style="rounded=0;whiteSpace=wrap;html=1;fillColor=#fff2cc;strokeColor=#d6b656;" vertex="1" parent="1">
          <mxGeometry x="-360" y="500" width="120" height="60" as="geometry" />
        </mxCell>
        <mxCell id="sdsZ9pWvR6tTJKx77jnk-14" value="have" style="rhombus;whiteSpace=wrap;html=1;fillColor=#dae8fc;strokeColor=#6c8ebf;" vertex="1" parent="1">
          <mxGeometry x="250" y="320" width="80" height="40" as="geometry" />
        </mxCell>
        <mxCell id="sdsZ9pWvR6tTJKx77jnk-15" value="" style="endArrow=none;html=1;rounded=0;exitX=1.018;exitY=0.669;exitDx=0;exitDy=0;exitPerimeter=0;" edge="1" parent="1" source="sdsZ9pWvR6tTJKx77jnk-2">
          <mxGeometry width="50" height="50" relative="1" as="geometry">
            <mxPoint x="-358" y="360" as="sourcePoint" />
            <mxPoint x="-357.6627218934914" y="360" as="targetPoint" />
          </mxGeometry>
        </mxCell>
        <mxCell id="sdsZ9pWvR6tTJKx77jnk-16" value="" style="endArrow=none;html=1;rounded=0;exitX=1;exitY=0;exitDx=0;exitDy=0;" edge="1" parent="1" source="sdsZ9pWvR6tTJKx77jnk-2">
          <mxGeometry width="50" height="50" relative="1" as="geometry">
            <mxPoint x="-360" y="320" as="sourcePoint" />
            <mxPoint x="-360" y="320" as="targetPoint" />
          </mxGeometry>
        </mxCell>
        <mxCell id="sdsZ9pWvR6tTJKx77jnk-17" value="having" style="rhombus;whiteSpace=wrap;html=1;fillColor=#dae8fc;strokeColor=#6c8ebf;" vertex="1" parent="1">
          <mxGeometry x="-810" y="330" width="80" height="40" as="geometry" />
        </mxCell>
        <mxCell id="sdsZ9pWvR6tTJKx77jnk-18" value="M" style="endArrow=none;html=1;rounded=0;exitX=0;exitY=0.5;exitDx=0;exitDy=0;entryX=1;entryY=0.5;entryDx=0;entryDy=0;" edge="1" parent="1" source="sdsZ9pWvR6tTJKx77jnk-11" target="sdsZ9pWvR6tTJKx77jnk-17">
          <mxGeometry x="1" y="-10" width="50" height="50" relative="1" as="geometry">
            <mxPoint x="-790" y="310" as="sourcePoint" />
            <mxPoint x="-740" y="250" as="targetPoint" />
            <mxPoint as="offset" />
          </mxGeometry>
        </mxCell>
        <mxCell id="sdsZ9pWvR6tTJKx77jnk-19" value="" style="endArrow=none;html=1;rounded=0;entryX=0;entryY=0.5;entryDx=0;entryDy=0;exitX=1;exitY=0.5;exitDx=0;exitDy=0;" edge="1" parent="1" target="sdsZ9pWvR6tTJKx77jnk-20">
          <mxGeometry width="50" height="50" relative="1" as="geometry">
            <mxPoint x="-920" y="350" as="sourcePoint" />
            <mxPoint x="-760" y="350" as="targetPoint" />
          </mxGeometry>
        </mxCell>
        <mxCell id="sdsZ9pWvR6tTJKx77jnk-20" value="&lt;font&gt;Product&lt;/font&gt;" style="rounded=0;whiteSpace=wrap;html=1;fontColor=#000000;" vertex="1" parent="1">
          <mxGeometry x="-940" y="320" width="120" height="60" as="geometry" />
        </mxCell>
        <mxCell id="sdsZ9pWvR6tTJKx77jnk-21" value="used" style="rhombus;whiteSpace=wrap;html=1;fillColor=#dae8fc;strokeColor=#6c8ebf;" vertex="1" parent="1">
          <mxGeometry x="-580" y="330" width="80" height="40" as="geometry" />
        </mxCell>
        <mxCell id="sdsZ9pWvR6tTJKx77jnk-22" value="M" style="endArrow=none;html=1;rounded=0;exitX=1;exitY=0.5;exitDx=0;exitDy=0;entryX=0;entryY=0.5;entryDx=0;entryDy=0;" edge="1" parent="1" source="sdsZ9pWvR6tTJKx77jnk-11" target="sdsZ9pWvR6tTJKx77jnk-21">
          <mxGeometry y="10" width="50" height="50" relative="1" as="geometry">
            <mxPoint x="-610" y="300" as="sourcePoint" />
            <mxPoint x="-560" y="250" as="targetPoint" />
            <mxPoint as="offset" />
          </mxGeometry>
        </mxCell>
        <mxCell id="sdsZ9pWvR6tTJKx77jnk-23" value="1" style="endArrow=none;html=1;rounded=0;exitX=1;exitY=0.5;exitDx=0;exitDy=0;entryX=0;entryY=0.5;entryDx=0;entryDy=0;" edge="1" parent="1" source="sdsZ9pWvR6tTJKx77jnk-1" target="sdsZ9pWvR6tTJKx77jnk-5">
          <mxGeometry x="-0.6667" y="10" width="50" height="50" relative="1" as="geometry">
            <mxPoint x="-1090" y="380" as="sourcePoint" />
            <mxPoint x="-1040" y="330" as="targetPoint" />
            <mxPoint as="offset" />
          </mxGeometry>
        </mxCell>
        <mxCell id="sdsZ9pWvR6tTJKx77jnk-24" value="&lt;font&gt;User&lt;/font&gt;" style="rounded=0;whiteSpace=wrap;html=1;fillColor=#f8cecc;strokeColor=#b85450;" vertex="1" parent="1">
          <mxGeometry x="-220" y="130" width="120" height="60" as="geometry" />
        </mxCell>
        <mxCell id="sdsZ9pWvR6tTJKx77jnk-25" value="&lt;font&gt;Employee&lt;/font&gt;" style="rounded=0;whiteSpace=wrap;html=1;fillColor=#f8cecc;strokeColor=#b85450;" vertex="1" parent="1">
          <mxGeometry x="40" y="310" width="120" height="60" as="geometry" />
        </mxCell>
        <mxCell id="sdsZ9pWvR6tTJKx77jnk-26" value="1" style="endArrow=none;html=1;rounded=0;entryX=0;entryY=0.5;entryDx=0;entryDy=0;exitX=1;exitY=0.5;exitDx=0;exitDy=0;" edge="1" parent="1" source="sdsZ9pWvR6tTJKx77jnk-25" target="sdsZ9pWvR6tTJKx77jnk-14">
          <mxGeometry x="-0.7143" y="10" width="50" height="50" relative="1" as="geometry">
            <mxPoint x="190" y="400" as="sourcePoint" />
            <mxPoint x="240" y="350" as="targetPoint" />
            <mxPoint as="offset" />
          </mxGeometry>
        </mxCell>
        <mxCell id="sdsZ9pWvR6tTJKx77jnk-27" value="1" style="endArrow=none;html=1;rounded=0;entryX=0;entryY=0.5;entryDx=0;entryDy=0;exitX=1;exitY=0.5;exitDx=0;exitDy=0;" edge="1" parent="1" source="sdsZ9pWvR6tTJKx77jnk-14" target="sdsZ9pWvR6tTJKx77jnk-10">
          <mxGeometry x="0.8182" y="10" width="50" height="50" relative="1" as="geometry">
            <mxPoint x="230" y="359.52" as="sourcePoint" />
            <mxPoint x="330" y="359.52" as="targetPoint" />
            <mxPoint as="offset" />
          </mxGeometry>
        </mxCell>
        <mxCell id="sdsZ9pWvR6tTJKx77jnk-28" value="Product_Activity_Log" style="rounded=0;whiteSpace=wrap;html=1;fillColor=#f8cecc;strokeColor=#b85450;" vertex="1" parent="1">
          <mxGeometry x="410" y="700" width="120" height="60" as="geometry" />
        </mxCell>
        <mxCell id="sdsZ9pWvR6tTJKx77jnk-29" value="" style="endArrow=none;html=1;rounded=0;entryX=0;entryY=0.5;entryDx=0;entryDy=0;exitX=1;exitY=0.5;exitDx=0;exitDy=0;" edge="1" parent="1" source="sdsZ9pWvR6tTJKx77jnk-86" target="sdsZ9pWvR6tTJKx77jnk-3">
          <mxGeometry width="50" height="50" relative="1" as="geometry">
            <mxPoint x="-530" y="690" as="sourcePoint" />
            <mxPoint x="-660" y="470" as="targetPoint" />
            <Array as="points">
              <mxPoint x="-520" y="690" />
            </Array>
          </mxGeometry>
        </mxCell>
        <mxCell id="sdsZ9pWvR6tTJKx77jnk-30" value="1" style="edgeLabel;html=1;align=center;verticalAlign=middle;resizable=0;points=[];" vertex="1" connectable="0" parent="sdsZ9pWvR6tTJKx77jnk-29">
          <mxGeometry x="-0.3241" relative="1" as="geometry">
            <mxPoint x="10" y="-10" as="offset" />
          </mxGeometry>
        </mxCell>
        <mxCell id="sdsZ9pWvR6tTJKx77jnk-31" value="" style="endArrow=none;html=1;rounded=0;exitX=1;exitY=0.5;exitDx=0;exitDy=0;entryX=0;entryY=0.5;entryDx=0;entryDy=0;" edge="1" parent="1" source="sdsZ9pWvR6tTJKx77jnk-90" target="sdsZ9pWvR6tTJKx77jnk-86">
          <mxGeometry width="50" height="50" relative="1" as="geometry">
            <mxPoint x="-710" y="520" as="sourcePoint" />
            <mxPoint x="-660" y="690" as="targetPoint" />
          </mxGeometry>
        </mxCell>
        <mxCell id="sdsZ9pWvR6tTJKx77jnk-32" value="1" style="edgeLabel;html=1;align=center;verticalAlign=middle;resizable=0;points=[];" vertex="1" connectable="0" parent="sdsZ9pWvR6tTJKx77jnk-31">
          <mxGeometry x="0.0667" y="2" relative="1" as="geometry">
            <mxPoint x="-6" y="-8" as="offset" />
          </mxGeometry>
        </mxCell>
        <mxCell id="sdsZ9pWvR6tTJKx77jnk-33" value="" style="endArrow=none;html=1;rounded=0;entryX=0;entryY=0.5;entryDx=0;entryDy=0;exitX=1;exitY=0.5;exitDx=0;exitDy=0;" edge="1" parent="1" source="sdsZ9pWvR6tTJKx77jnk-100" target="sdsZ9pWvR6tTJKx77jnk-90">
          <mxGeometry width="50" height="50" relative="1" as="geometry">
            <mxPoint x="-820" y="520" as="sourcePoint" />
            <mxPoint x="-660" y="470" as="targetPoint" />
          </mxGeometry>
        </mxCell>
        <mxCell id="sdsZ9pWvR6tTJKx77jnk-34" value="1" style="edgeLabel;html=1;align=center;verticalAlign=middle;resizable=0;points=[];" vertex="1" connectable="0" parent="sdsZ9pWvR6tTJKx77jnk-33">
          <mxGeometry x="-0.0023" relative="1" as="geometry">
            <mxPoint y="-10" as="offset" />
          </mxGeometry>
        </mxCell>
        <mxCell id="sdsZ9pWvR6tTJKx77jnk-35" value="" style="endArrow=none;html=1;rounded=0;entryX=0.5;entryY=0;entryDx=0;entryDy=0;exitX=0.868;exitY=0.993;exitDx=0;exitDy=0;exitPerimeter=0;" edge="1" parent="1" source="sdsZ9pWvR6tTJKx77jnk-20" target="sdsZ9pWvR6tTJKx77jnk-100">
          <mxGeometry width="50" height="50" relative="1" as="geometry">
            <mxPoint x="-830" y="381" as="sourcePoint" />
            <mxPoint x="-860" y="500" as="targetPoint" />
            <Array as="points" />
          </mxGeometry>
        </mxCell>
        <mxCell id="sdsZ9pWvR6tTJKx77jnk-36" value="M" style="edgeLabel;html=1;align=center;verticalAlign=middle;resizable=0;points=[];" vertex="1" connectable="0" parent="sdsZ9pWvR6tTJKx77jnk-35">
          <mxGeometry x="-0.6552" relative="1" as="geometry">
            <mxPoint x="10" y="-11" as="offset" />
          </mxGeometry>
        </mxCell>
        <mxCell id="sdsZ9pWvR6tTJKx77jnk-37" value="&lt;font&gt;Cart&lt;/font&gt;" style="rounded=0;whiteSpace=wrap;html=1;absoluteArcSize=0;fillColor=#fff2cc;strokeColor=#d6b656;" vertex="1" parent="1">
          <mxGeometry x="-710" y="110" width="120" height="60" as="geometry" />
        </mxCell>
        <mxCell id="sdsZ9pWvR6tTJKx77jnk-38" value="1" style="endArrow=none;html=1;rounded=0;exitX=1;exitY=0.5;exitDx=0;exitDy=0;entryX=0;entryY=0.5;entryDx=0;entryDy=0;" edge="1" parent="1" source="sdsZ9pWvR6tTJKx77jnk-7" target="sdsZ9pWvR6tTJKx77jnk-37">
          <mxGeometry x="0.8462" y="10" width="50" height="50" relative="1" as="geometry">
            <mxPoint x="-815" y="130" as="sourcePoint" />
            <mxPoint x="-765" y="80" as="targetPoint" />
            <mxPoint as="offset" />
          </mxGeometry>
        </mxCell>
        <mxCell id="sdsZ9pWvR6tTJKx77jnk-39" value="M" style="endArrow=none;html=1;rounded=0;exitX=1;exitY=0.5;exitDx=0;exitDy=0;entryX=0;entryY=0.5;entryDx=0;entryDy=0;" edge="1" parent="1" source="sdsZ9pWvR6tTJKx77jnk-37" target="sdsZ9pWvR6tTJKx77jnk-83">
          <mxGeometry x="-0.8261" y="10" width="50" height="50" relative="1" as="geometry">
            <mxPoint x="-585" y="180" as="sourcePoint" />
            <mxPoint x="-500" y="140" as="targetPoint" />
            <mxPoint as="offset" />
          </mxGeometry>
        </mxCell>
        <mxCell id="sdsZ9pWvR6tTJKx77jnk-40" value="1" style="endArrow=none;html=1;rounded=0;exitX=0.5;exitY=0;exitDx=0;exitDy=0;entryX=0.25;entryY=1;entryDx=0;entryDy=0;" edge="1" parent="1" source="sdsZ9pWvR6tTJKx77jnk-9" target="sdsZ9pWvR6tTJKx77jnk-2">
          <mxGeometry x="0.5754" y="12" width="50" height="50" relative="1" as="geometry">
            <mxPoint x="-440.0000000000002" y="430" as="sourcePoint" />
            <mxPoint x="-440" y="390" as="targetPoint" />
            <mxPoint as="offset" />
          </mxGeometry>
        </mxCell>
        <mxCell id="sdsZ9pWvR6tTJKx77jnk-41" value="M" style="endArrow=none;html=1;rounded=0;exitX=0.5;exitY=1;exitDx=0;exitDy=0;entryX=0.5;entryY=0;entryDx=0;entryDy=0;" edge="1" parent="1" source="sdsZ9pWvR6tTJKx77jnk-9" target="sdsZ9pWvR6tTJKx77jnk-3">
          <mxGeometry x="0.8462" y="-10" width="50" height="50" relative="1" as="geometry">
            <mxPoint x="-450" y="440" as="sourcePoint" />
            <mxPoint x="-458" y="580" as="targetPoint" />
            <mxPoint as="offset" />
          </mxGeometry>
        </mxCell>
        <mxCell id="sdsZ9pWvR6tTJKx77jnk-42" value="have" style="rhombus;whiteSpace=wrap;html=1;fillColor=#dae8fc;strokeColor=#6c8ebf;" vertex="1" parent="1">
          <mxGeometry x="-340" y="400" width="80" height="40" as="geometry" />
        </mxCell>
        <mxCell id="sdsZ9pWvR6tTJKx77jnk-43" value="1" style="endArrow=none;html=1;rounded=0;entryX=0.5;entryY=0;entryDx=0;entryDy=0;" edge="1" parent="1" target="sdsZ9pWvR6tTJKx77jnk-42">
          <mxGeometry x="-0.8507" y="-10" width="50" height="50" relative="1" as="geometry">
            <mxPoint x="-360" y="360" as="sourcePoint" />
            <mxPoint x="-290" y="320" as="targetPoint" />
            <Array as="points">
              <mxPoint x="-300" y="360" />
            </Array>
            <mxPoint as="offset" />
          </mxGeometry>
        </mxCell>
        <mxCell id="sdsZ9pWvR6tTJKx77jnk-44" value="" style="endArrow=none;html=1;rounded=0;entryX=0.5;entryY=1;entryDx=0;entryDy=0;" edge="1" parent="1" source="sdsZ9pWvR6tTJKx77jnk-13" target="sdsZ9pWvR6tTJKx77jnk-42">
          <mxGeometry width="50" height="50" relative="1" as="geometry">
            <mxPoint x="-360" y="480" as="sourcePoint" />
            <mxPoint x="-300" y="470" as="targetPoint" />
          </mxGeometry>
        </mxCell>
        <mxCell id="sdsZ9pWvR6tTJKx77jnk-45" value="M" style="edgeLabel;html=1;align=center;verticalAlign=middle;resizable=0;points=[];" vertex="1" connectable="0" parent="sdsZ9pWvR6tTJKx77jnk-44">
          <mxGeometry x="0.0037" relative="1" as="geometry">
            <mxPoint x="-10" y="20" as="offset" />
          </mxGeometry>
        </mxCell>
        <mxCell id="sdsZ9pWvR6tTJKx77jnk-46" value="" style="endArrow=none;html=1;rounded=0;exitX=1;exitY=0.25;exitDx=0;exitDy=0;entryX=0;entryY=0.5;entryDx=0;entryDy=0;" edge="1" parent="1" target="sdsZ9pWvR6tTJKx77jnk-25">
          <mxGeometry width="50" height="50" relative="1" as="geometry">
            <mxPoint x="-360" y="339.9" as="sourcePoint" />
            <mxPoint x="-70" y="339.9" as="targetPoint" />
          </mxGeometry>
        </mxCell>
        <mxCell id="sdsZ9pWvR6tTJKx77jnk-47" value="" style="endArrow=block;html=1;rounded=0;entryX=0.5;entryY=1;entryDx=0;entryDy=0;endFill=0;strokeWidth=1;endSize=15;" edge="1" parent="1">
          <mxGeometry width="50" height="50" relative="1" as="geometry">
            <mxPoint x="-160.2" y="340" as="sourcePoint" />
            <mxPoint x="-160.2" y="190" as="targetPoint" />
          </mxGeometry>
        </mxCell>
        <mxCell id="sdsZ9pWvR6tTJKx77jnk-48" value="&lt;font&gt;Admin&lt;/font&gt;" style="rounded=0;whiteSpace=wrap;html=1;fillColor=#f8cecc;strokeColor=#b85450;" vertex="1" parent="1">
          <mxGeometry x="230" y="500" width="120" height="60" as="geometry" />
        </mxCell>
        <mxCell id="sdsZ9pWvR6tTJKx77jnk-49" value="Warehouse_Manager" style="rounded=0;whiteSpace=wrap;html=1;fillColor=#f8cecc;strokeColor=#b85450;" vertex="1" parent="1">
          <mxGeometry x="40" y="500" width="120" height="60" as="geometry" />
        </mxCell>
        <mxCell id="sdsZ9pWvR6tTJKx77jnk-50" value="Order_Manager" style="rounded=0;whiteSpace=wrap;html=1;fillColor=#f8cecc;strokeColor=#b85450;" vertex="1" parent="1">
          <mxGeometry x="-130" y="500" width="120" height="60" as="geometry" />
        </mxCell>
        <mxCell id="sdsZ9pWvR6tTJKx77jnk-51" value="" style="endArrow=none;html=1;rounded=0;" edge="1" parent="1">
          <mxGeometry width="50" height="50" relative="1" as="geometry">
            <mxPoint x="-70" y="450" as="sourcePoint" />
            <mxPoint x="290" y="450" as="targetPoint" />
          </mxGeometry>
        </mxCell>
        <mxCell id="sdsZ9pWvR6tTJKx77jnk-52" value="" style="endArrow=none;html=1;rounded=0;exitX=0.5;exitY=0;exitDx=0;exitDy=0;" edge="1" parent="1" source="sdsZ9pWvR6tTJKx77jnk-50">
          <mxGeometry width="50" height="50" relative="1" as="geometry">
            <mxPoint x="90" y="440" as="sourcePoint" />
            <mxPoint x="-70" y="450" as="targetPoint" />
          </mxGeometry>
        </mxCell>
        <mxCell id="sdsZ9pWvR6tTJKx77jnk-53" value="" style="endArrow=none;html=1;rounded=0;exitX=0.5;exitY=0;exitDx=0;exitDy=0;" edge="1" parent="1" source="sdsZ9pWvR6tTJKx77jnk-49">
          <mxGeometry width="50" height="50" relative="1" as="geometry">
            <mxPoint x="100" y="490" as="sourcePoint" />
            <mxPoint x="100" y="450" as="targetPoint" />
          </mxGeometry>
        </mxCell>
        <mxCell id="sdsZ9pWvR6tTJKx77jnk-54" value="" style="endArrow=none;html=1;rounded=0;exitX=0.58;exitY=-0.021;exitDx=0;exitDy=0;exitPerimeter=0;" edge="1" parent="1">
          <mxGeometry width="50" height="50" relative="1" as="geometry">
            <mxPoint x="289.76" y="500" as="sourcePoint" />
            <mxPoint x="289.9" y="450" as="targetPoint" />
          </mxGeometry>
        </mxCell>
        <mxCell id="sdsZ9pWvR6tTJKx77jnk-55" value="" style="endArrow=block;html=1;rounded=0;entryX=0.5;entryY=1;entryDx=0;entryDy=0;endFill=0;strokeWidth=1;endSize=15;" edge="1" parent="1" target="sdsZ9pWvR6tTJKx77jnk-25">
          <mxGeometry width="50" height="50" relative="1" as="geometry">
            <mxPoint x="100" y="450" as="sourcePoint" />
            <mxPoint x="120" y="330" as="targetPoint" />
          </mxGeometry>
        </mxCell>
        <mxCell id="sdsZ9pWvR6tTJKx77jnk-56" value="edit" style="rhombus;whiteSpace=wrap;html=1;fillColor=#dae8fc;strokeColor=#6c8ebf;" vertex="1" parent="1">
          <mxGeometry x="250" y="610" width="80" height="40" as="geometry" />
        </mxCell>
        <mxCell id="sdsZ9pWvR6tTJKx77jnk-57" value="1" style="endArrow=none;html=1;rounded=0;entryX=0.5;entryY=1;entryDx=0;entryDy=0;exitX=0.5;exitY=0;exitDx=0;exitDy=0;" edge="1" parent="1" source="sdsZ9pWvR6tTJKx77jnk-56" target="sdsZ9pWvR6tTJKx77jnk-48">
          <mxGeometry x="0.6" y="10" width="50" height="50" relative="1" as="geometry">
            <mxPoint x="-40" y="680" as="sourcePoint" />
            <mxPoint x="10" y="630" as="targetPoint" />
            <mxPoint as="offset" />
          </mxGeometry>
        </mxCell>
        <mxCell id="sdsZ9pWvR6tTJKx77jnk-58" value="M" style="endArrow=none;html=1;rounded=0;entryX=0.5;entryY=1;entryDx=0;entryDy=0;exitX=0.5;exitY=0;exitDx=0;exitDy=0;" edge="1" parent="1" source="sdsZ9pWvR6tTJKx77jnk-12" target="sdsZ9pWvR6tTJKx77jnk-56">
          <mxGeometry x="-0.6" y="10" width="50" height="50" relative="1" as="geometry">
            <mxPoint x="-40" y="680" as="sourcePoint" />
            <mxPoint x="10" y="630" as="targetPoint" />
            <mxPoint as="offset" />
          </mxGeometry>
        </mxCell>
        <mxCell id="sdsZ9pWvR6tTJKx77jnk-59" value="View" style="rhombus;whiteSpace=wrap;html=1;fillColor=#dae8fc;strokeColor=#6c8ebf;" vertex="1" parent="1">
          <mxGeometry x="430" y="610" width="80" height="40" as="geometry" />
        </mxCell>
        <mxCell id="sdsZ9pWvR6tTJKx77jnk-60" value="1" style="endArrow=none;html=1;rounded=0;entryX=1;entryY=0.5;entryDx=0;entryDy=0;exitX=0.5;exitY=0;exitDx=0;exitDy=0;" edge="1" parent="1" source="sdsZ9pWvR6tTJKx77jnk-59" target="sdsZ9pWvR6tTJKx77jnk-48">
          <mxGeometry x="0.9" y="-10" width="50" height="50" relative="1" as="geometry">
            <mxPoint x="140" y="680" as="sourcePoint" />
            <mxPoint x="470" y="560" as="targetPoint" />
            <Array as="points">
              <mxPoint x="470" y="530" />
            </Array>
            <mxPoint as="offset" />
          </mxGeometry>
        </mxCell>
        <mxCell id="sdsZ9pWvR6tTJKx77jnk-61" value="M" style="endArrow=none;html=1;rounded=0;entryX=0.5;entryY=1;entryDx=0;entryDy=0;exitX=0.5;exitY=0;exitDx=0;exitDy=0;" edge="1" parent="1" target="sdsZ9pWvR6tTJKx77jnk-59">
          <mxGeometry x="-0.6" y="10" width="50" height="50" relative="1" as="geometry">
            <mxPoint x="470" y="700" as="sourcePoint" />
            <mxPoint x="190" y="630" as="targetPoint" />
            <mxPoint as="offset" />
          </mxGeometry>
        </mxCell>
        <mxCell id="sdsZ9pWvR6tTJKx77jnk-62" value="M" style="endArrow=none;html=1;rounded=0;exitX=0.5;exitY=1;exitDx=0;exitDy=0;entryX=0;entryY=0.5;entryDx=0;entryDy=0;" edge="1" parent="1" source="sdsZ9pWvR6tTJKx77jnk-3" target="sdsZ9pWvR6tTJKx77jnk-63">
          <mxGeometry x="-0.8519" y="10" width="50" height="50" relative="1" as="geometry">
            <mxPoint x="-340" y="655" as="sourcePoint" />
            <mxPoint x="-290" y="610" as="targetPoint" />
            <mxPoint as="offset" />
            <Array as="points">
              <mxPoint x="-450" y="750" />
            </Array>
          </mxGeometry>
        </mxCell>
        <mxCell id="sdsZ9pWvR6tTJKx77jnk-63" value="manage" style="rhombus;whiteSpace=wrap;html=1;fillColor=#dae8fc;strokeColor=#6c8ebf;" vertex="1" parent="1">
          <mxGeometry x="-280" y="730" width="80" height="40" as="geometry" />
        </mxCell>
        <mxCell id="sdsZ9pWvR6tTJKx77jnk-64" value="1" style="endArrow=none;html=1;rounded=0;exitX=1;exitY=0.5;exitDx=0;exitDy=0;entryX=0.5;entryY=1;entryDx=0;entryDy=0;" edge="1" parent="1" source="sdsZ9pWvR6tTJKx77jnk-63" target="sdsZ9pWvR6tTJKx77jnk-50">
          <mxGeometry x="0.8947" y="-10" width="50" height="50" relative="1" as="geometry">
            <mxPoint x="-190" y="620" as="sourcePoint" />
            <mxPoint x="-82" y="620" as="targetPoint" />
            <Array as="points">
              <mxPoint x="-70" y="750" />
            </Array>
            <mxPoint as="offset" />
          </mxGeometry>
        </mxCell>
        <mxCell id="sdsZ9pWvR6tTJKx77jnk-65" value="" style="endArrow=none;html=1;rounded=0;entryX=0;entryY=0.5;entryDx=0;entryDy=0;exitX=1;exitY=0.5;exitDx=0;exitDy=0;" edge="1" parent="1" source="sdsZ9pWvR6tTJKx77jnk-21" target="sdsZ9pWvR6tTJKx77jnk-2">
          <mxGeometry width="50" height="50" relative="1" as="geometry">
            <mxPoint x="-590" y="420" as="sourcePoint" />
            <mxPoint x="-540" y="370" as="targetPoint" />
          </mxGeometry>
        </mxCell>
        <mxCell id="sdsZ9pWvR6tTJKx77jnk-66" value="1" style="edgeLabel;html=1;align=center;verticalAlign=middle;resizable=0;points=[];" vertex="1" connectable="0" parent="sdsZ9pWvR6tTJKx77jnk-65">
          <mxGeometry x="-0.4429" relative="1" as="geometry">
            <mxPoint x="4" y="-10" as="offset" />
          </mxGeometry>
        </mxCell>
        <mxCell id="sdsZ9pWvR6tTJKx77jnk-67" value="1" style="endArrow=none;html=1;rounded=0;exitX=1;exitY=0.5;exitDx=0;exitDy=0;entryX=0;entryY=0.5;entryDx=0;entryDy=0;" edge="1" parent="1" source="sdsZ9pWvR6tTJKx77jnk-20" target="sdsZ9pWvR6tTJKx77jnk-17">
          <mxGeometry x="1" y="10" width="50" height="50" relative="1" as="geometry">
            <mxPoint x="-590" y="420" as="sourcePoint" />
            <mxPoint x="-540" y="370" as="targetPoint" />
            <mxPoint as="offset" />
          </mxGeometry>
        </mxCell>
        <mxCell id="sdsZ9pWvR6tTJKx77jnk-68" value="&lt;font&gt;Cart&lt;/font&gt;" style="rounded=0;whiteSpace=wrap;html=1;absoluteArcSize=0;fillColor=#fff2cc;strokeColor=#d6b656;" vertex="1" parent="1">
          <mxGeometry x="-700" y="120" width="100" height="40" as="geometry" />
        </mxCell>
        <mxCell id="sdsZ9pWvR6tTJKx77jnk-69" value="1" style="endArrow=none;html=1;rounded=0;exitX=1;exitY=0.5;exitDx=0;exitDy=0;" edge="1" parent="1" source="sdsZ9pWvR6tTJKx77jnk-71">
          <mxGeometry x="0.9676" y="-10" width="50" height="50" relative="1" as="geometry">
            <mxPoint x="-50" y="890" as="sourcePoint" />
            <mxPoint x="480" y="760" as="targetPoint" />
            <Array as="points">
              <mxPoint x="480" y="880" />
            </Array>
            <mxPoint as="offset" />
          </mxGeometry>
        </mxCell>
        <mxCell id="sdsZ9pWvR6tTJKx77jnk-70" value="M" style="endArrow=none;html=1;rounded=0;exitX=0.25;exitY=1;exitDx=0;exitDy=0;entryX=0;entryY=0.5;entryDx=0;entryDy=0;" edge="1" parent="1" source="sdsZ9pWvR6tTJKx77jnk-20" target="sdsZ9pWvR6tTJKx77jnk-71">
          <mxGeometry x="-0.9813" y="-10" width="50" height="50" relative="1" as="geometry">
            <mxPoint x="-910" y="380" as="sourcePoint" />
            <mxPoint x="480" y="758" as="targetPoint" />
            <Array as="points">
              <mxPoint x="-910" y="880" />
            </Array>
            <mxPoint as="offset" />
          </mxGeometry>
        </mxCell>
        <mxCell id="sdsZ9pWvR6tTJKx77jnk-71" value="include" style="rhombus;whiteSpace=wrap;html=1;fillColor=#dae8fc;strokeColor=#6c8ebf;" vertex="1" parent="1">
          <mxGeometry x="-270" y="860" width="80" height="40" as="geometry" />
        </mxCell>
        <mxCell id="sdsZ9pWvR6tTJKx77jnk-72" value="DeliveryAddress" style="rounded=0;whiteSpace=wrap;html=1;fillColor=#fff2cc;strokeColor=#d6b656;" vertex="1" parent="1">
          <mxGeometry x="-350" y="510" width="100" height="40" as="geometry" />
        </mxCell>
        <mxCell id="sdsZ9pWvR6tTJKx77jnk-73" value="Supplying" style="rounded=0;whiteSpace=wrap;html=1;fillColor=#f8cecc;strokeColor=#b85450;" vertex="1" parent="1">
          <mxGeometry x="40" y="700" width="120" height="60" as="geometry" />
        </mxCell>
        <mxCell id="sdsZ9pWvR6tTJKx77jnk-74" value="1" style="endArrow=none;html=1;rounded=0;entryX=0.5;entryY=1;entryDx=0;entryDy=0;exitX=0.5;exitY=0;exitDx=0;exitDy=0;" edge="1" parent="1" source="sdsZ9pWvR6tTJKx77jnk-76" target="sdsZ9pWvR6tTJKx77jnk-49">
          <mxGeometry x="0.6" y="10" width="50" height="50" relative="1" as="geometry">
            <mxPoint x="75" y="640" as="sourcePoint" />
            <mxPoint x="125" y="590" as="targetPoint" />
            <mxPoint as="offset" />
          </mxGeometry>
        </mxCell>
        <mxCell id="sdsZ9pWvR6tTJKx77jnk-75" value="M" style="endArrow=none;html=1;rounded=0;entryX=0.5;entryY=1;entryDx=0;entryDy=0;exitX=0.5;exitY=0;exitDx=0;exitDy=0;" edge="1" parent="1" source="sdsZ9pWvR6tTJKx77jnk-73" target="sdsZ9pWvR6tTJKx77jnk-76">
          <mxGeometry x="-0.6" y="10" width="50" height="50" relative="1" as="geometry">
            <mxPoint x="100" y="700" as="sourcePoint" />
            <mxPoint x="100" y="560" as="targetPoint" />
            <mxPoint as="offset" />
          </mxGeometry>
        </mxCell>
        <mxCell id="sdsZ9pWvR6tTJKx77jnk-76" value="Manage" style="rhombus;whiteSpace=wrap;html=1;fillColor=#dae8fc;strokeColor=#6c8ebf;" vertex="1" parent="1">
          <mxGeometry x="60" y="610" width="80" height="40" as="geometry" />
        </mxCell>
        <mxCell id="sdsZ9pWvR6tTJKx77jnk-77" value="M" style="endArrow=none;html=1;rounded=0;entryX=0.5;entryY=1;entryDx=0;entryDy=0;exitX=0.5;exitY=0;exitDx=0;exitDy=0;" edge="1" parent="1" source="sdsZ9pWvR6tTJKx77jnk-80" target="sdsZ9pWvR6tTJKx77jnk-13">
          <mxGeometry x="0.6667" y="10" width="50" height="50" relative="1" as="geometry">
            <mxPoint x="-370" y="600" as="sourcePoint" />
            <mxPoint x="-320" y="550" as="targetPoint" />
            <mxPoint as="offset" />
          </mxGeometry>
        </mxCell>
        <mxCell id="sdsZ9pWvR6tTJKx77jnk-78" value="1" style="endArrow=none;html=1;rounded=0;exitX=1;exitY=0.5;exitDx=0;exitDy=0;entryX=0.5;entryY=1;entryDx=0;entryDy=0;" edge="1" parent="1" source="sdsZ9pWvR6tTJKx77jnk-3" target="sdsZ9pWvR6tTJKx77jnk-80">
          <mxGeometry x="-0.8571" y="10" width="50" height="50" relative="1" as="geometry">
            <mxPoint x="-390" y="660" as="sourcePoint" />
            <mxPoint x="-340" y="610" as="targetPoint" />
            <Array as="points">
              <mxPoint x="-300" y="690" />
            </Array>
            <mxPoint as="offset" />
          </mxGeometry>
        </mxCell>
        <mxCell id="sdsZ9pWvR6tTJKx77jnk-79" value="" style="group" vertex="1" connectable="0" parent="1">
          <mxGeometry x="-355" y="610" width="110" height="60" as="geometry" />
        </mxCell>
        <mxCell id="sdsZ9pWvR6tTJKx77jnk-80" value="" style="rhombus;whiteSpace=wrap;html=1;fillColor=#dae8fc;strokeColor=#6c8ebf;" vertex="1" parent="sdsZ9pWvR6tTJKx77jnk-79">
          <mxGeometry width="110" height="60" as="geometry" />
        </mxCell>
        <mxCell id="sdsZ9pWvR6tTJKx77jnk-81" value="include" style="rhombus;whiteSpace=wrap;html=1;fillColor=#dae8fc;strokeColor=#6c8ebf;" vertex="1" parent="sdsZ9pWvR6tTJKx77jnk-79">
          <mxGeometry x="15" y="10" width="80" height="40" as="geometry" />
        </mxCell>
        <mxCell id="sdsZ9pWvR6tTJKx77jnk-82" value="" style="group" vertex="1" connectable="0" parent="1">
          <mxGeometry x="-475" y="110" width="110" height="60" as="geometry" />
        </mxCell>
        <mxCell id="sdsZ9pWvR6tTJKx77jnk-83" value="" style="rhombus;whiteSpace=wrap;html=1;fillColor=#dae8fc;strokeColor=#6c8ebf;" vertex="1" parent="sdsZ9pWvR6tTJKx77jnk-82">
          <mxGeometry width="110" height="60" as="geometry" />
        </mxCell>
        <mxCell id="sdsZ9pWvR6tTJKx77jnk-84" value="include" style="rhombus;whiteSpace=wrap;html=1;fillColor=#dae8fc;strokeColor=#6c8ebf;" vertex="1" parent="sdsZ9pWvR6tTJKx77jnk-82">
          <mxGeometry x="15" y="10" width="80" height="40" as="geometry" />
        </mxCell>
        <mxCell id="sdsZ9pWvR6tTJKx77jnk-85" value="" style="group" vertex="1" connectable="0" parent="1">
          <mxGeometry x="-630" y="490" width="110" height="60" as="geometry" />
        </mxCell>
        <mxCell id="sdsZ9pWvR6tTJKx77jnk-86" value="" style="rhombus;whiteSpace=wrap;html=1;fillColor=#dae8fc;strokeColor=#6c8ebf;" vertex="1" parent="sdsZ9pWvR6tTJKx77jnk-85">
          <mxGeometry width="110" height="60" as="geometry" />
        </mxCell>
        <mxCell id="sdsZ9pWvR6tTJKx77jnk-87" value="include" style="rhombus;whiteSpace=wrap;html=1;fillColor=#dae8fc;strokeColor=#6c8ebf;" vertex="1" parent="sdsZ9pWvR6tTJKx77jnk-85">
          <mxGeometry x="15" y="10" width="80" height="40" as="geometry" />
        </mxCell>
        <mxCell id="sdsZ9pWvR6tTJKx77jnk-88" value="M" style="endArrow=none;html=1;rounded=0;exitX=1;exitY=0.5;exitDx=0;exitDy=0;entryX=0.088;entryY=0.002;entryDx=0;entryDy=0;entryPerimeter=0;" edge="1" parent="1" source="sdsZ9pWvR6tTJKx77jnk-5" target="sdsZ9pWvR6tTJKx77jnk-20">
          <mxGeometry x="0.8299" y="-10" width="50" height="50" relative="1" as="geometry">
            <mxPoint x="-930" y="410" as="sourcePoint" />
            <mxPoint x="-940" y="350" as="targetPoint" />
            <Array as="points">
              <mxPoint x="-930" y="260" />
            </Array>
            <mxPoint as="offset" />
          </mxGeometry>
        </mxCell>
        <mxCell id="sdsZ9pWvR6tTJKx77jnk-89" value="" style="group" vertex="1" connectable="0" parent="1">
          <mxGeometry x="-770" y="490" width="120" height="60" as="geometry" />
        </mxCell>
        <mxCell id="sdsZ9pWvR6tTJKx77jnk-90" value="" style="rounded=0;whiteSpace=wrap;html=1;fillColor=#fff2cc;strokeColor=#d6b656;" vertex="1" parent="sdsZ9pWvR6tTJKx77jnk-89">
          <mxGeometry width="120" height="60" as="geometry" />
        </mxCell>
        <mxCell id="sdsZ9pWvR6tTJKx77jnk-91" value="&lt;font&gt;Order_Detail&lt;/font&gt;" style="rounded=0;whiteSpace=wrap;html=1;fillColor=#fff2cc;strokeColor=#d6b656;" vertex="1" parent="sdsZ9pWvR6tTJKx77jnk-89">
          <mxGeometry x="10" y="10" width="100" height="40" as="geometry" />
        </mxCell>
        <mxCell id="sdsZ9pWvR6tTJKx77jnk-92" value="" style="rounded=0;whiteSpace=wrap;html=1;fillColor=#f8cecc;strokeColor=#b85450;" vertex="1" parent="1">
          <mxGeometry x="-1250" y="330" width="120" height="60" as="geometry" />
        </mxCell>
        <mxCell id="sdsZ9pWvR6tTJKx77jnk-93" value="M" style="endArrow=none;html=1;rounded=0;entryX=-0.008;entryY=0.662;entryDx=0;entryDy=0;entryPerimeter=0;exitX=1;exitY=0.5;exitDx=0;exitDy=0;" edge="1" parent="1" source="sdsZ9pWvR6tTJKx77jnk-97" target="sdsZ9pWvR6tTJKx77jnk-20">
          <mxGeometry x="0.6336" y="10" width="50" height="50" relative="1" as="geometry">
            <mxPoint x="-970" y="360" as="sourcePoint" />
            <mxPoint x="-999.5" y="470" as="targetPoint" />
            <Array as="points" />
            <mxPoint as="offset" />
          </mxGeometry>
        </mxCell>
        <mxCell id="sdsZ9pWvR6tTJKx77jnk-94" value="1" style="endArrow=none;html=1;rounded=0;exitX=1;exitY=0.5;exitDx=0;exitDy=0;entryX=0;entryY=0.5;entryDx=0;entryDy=0;" edge="1" parent="1" source="sdsZ9pWvR6tTJKx77jnk-92" target="sdsZ9pWvR6tTJKx77jnk-97">
          <mxGeometry x="-0.6667" y="10" width="50" height="50" relative="1" as="geometry">
            <mxPoint x="-1000" y="360" as="sourcePoint" />
            <mxPoint x="-1100" y="360" as="targetPoint" />
            <mxPoint as="offset" />
          </mxGeometry>
        </mxCell>
        <mxCell id="sdsZ9pWvR6tTJKx77jnk-95" value="&lt;font&gt;Stock&lt;/font&gt;" style="rounded=0;whiteSpace=wrap;html=1;fillColor=#f8cecc;strokeColor=#b85450;" vertex="1" parent="1">
          <mxGeometry x="-1240" y="340" width="100" height="40" as="geometry" />
        </mxCell>
        <mxCell id="sdsZ9pWvR6tTJKx77jnk-96" value="" style="group" vertex="1" connectable="0" parent="1">
          <mxGeometry x="-1085" y="330" width="110" height="60" as="geometry" />
        </mxCell>
        <mxCell id="sdsZ9pWvR6tTJKx77jnk-97" value="" style="rhombus;whiteSpace=wrap;html=1;fillColor=#dae8fc;strokeColor=#6c8ebf;" vertex="1" parent="sdsZ9pWvR6tTJKx77jnk-96">
          <mxGeometry width="110" height="60" as="geometry" />
        </mxCell>
        <mxCell id="sdsZ9pWvR6tTJKx77jnk-98" value="include" style="rhombus;whiteSpace=wrap;html=1;fillColor=#dae8fc;strokeColor=#6c8ebf;" vertex="1" parent="sdsZ9pWvR6tTJKx77jnk-96">
          <mxGeometry x="15" y="10" width="80" height="40" as="geometry" />
        </mxCell>
        <mxCell id="sdsZ9pWvR6tTJKx77jnk-99" value="" style="group" vertex="1" connectable="0" parent="1">
          <mxGeometry x="-890" y="490" width="110" height="60" as="geometry" />
        </mxCell>
        <mxCell id="sdsZ9pWvR6tTJKx77jnk-100" value="" style="rhombus;whiteSpace=wrap;html=1;fillColor=#dae8fc;strokeColor=#6c8ebf;" vertex="1" parent="sdsZ9pWvR6tTJKx77jnk-99">
          <mxGeometry width="110" height="60" as="geometry" />
        </mxCell>
        <mxCell id="sdsZ9pWvR6tTJKx77jnk-101" value="include" style="rhombus;whiteSpace=wrap;html=1;fillColor=#dae8fc;strokeColor=#6c8ebf;" vertex="1" parent="sdsZ9pWvR6tTJKx77jnk-99">
          <mxGeometry x="15" y="10" width="80" height="40" as="geometry" />
        </mxCell>
      </root>
    </mxGraphModel>
  </diagram>
</mxfile>
